HIERARCHY
ROOT joint_Root
{
  OFFSET 0 0 0
  CHANNELS 6 Xposition Yposition Zposition Zrotation Xrotation Yrotation
  JOINT Hips
  {
    OFFSET 0 93.9241 -3
    CHANNELS 6 Xposition Yposition Zposition Zrotation Xrotation Yrotation
    JOINT Spine
    {
      OFFSET 15.7357 0 0
      CHANNELS 6 Xposition Yposition Zposition Zrotation Xrotation Yrotation
      JOINT Chest
      {
        OFFSET 8.98455 -0.406207 0
        CHANNELS 6 Xposition Yposition Zposition Zrotation Xrotation Yrotation
        JOINT Neck
        {
          OFFSET 16.3773 0 0
          CHANNELS 6 Xposition Yposition Zposition Zrotation Xrotation Yrotation
          JOINT Head
          {
            OFFSET 6.45672 0 0
            CHANNELS 6 Xposition Yposition Zposition Zrotation Xrotation Yrotation
            End Site
            {
              OFFSET 0 0 0
            }
          }
        }
        JOINT Shoulder_L
        {
          OFFSET 12.9942 -0.242716 4.98039
          CHANNELS 6 Xposition Yposition Zposition Zrotation Xrotation Yrotation
          JOINT UpperArm_L
          {
            OFFSET 5.34809 0 0
            CHANNELS 6 Xposition Yposition Zposition Zrotation Xrotation Yrotation
            JOINT LowerArm_L
            {
              OFFSET 24.3286 1.87007e-05 0
              CHANNELS 6 Xposition Yposition Zposition Zrotation Xrotation Yrotation
              JOINT Hand_L
              {
                OFFSET 22.2916 0 0
                CHANNELS 6 Xposition Yposition Zposition Zrotation Xrotation Yrotation
                End Site
                {
                  OFFSET 0 0 0
                }
              }
            }
          }
        }
        JOINT Shoulder_R
        {
          OFFSET 12.9945 -0.242716 -4.98039
          CHANNELS 6 Xposition Yposition Zposition Zrotation Xrotation Yrotation
          JOINT UpperArm_R
          {
            OFFSET -5.34813 0 0
            CHANNELS 6 Xposition Yposition Zposition Zrotation Xrotation Yrotation
            JOINT LowerArm_R
            {
              OFFSET -24.3289 0.000322201 0
              CHANNELS 6 Xposition Yposition Zposition Zrotation Xrotation Yrotation
              JOINT Hand_R
              {
                OFFSET -22.2915 -0.000108084 0
                CHANNELS 6 Xposition Yposition Zposition Zrotation Xrotation Yrotation
                End Site
                {
                  OFFSET 0 0 0
                }
              }
            }
          }
        }
      }
    }
    JOINT UpperLeg_L
    {
      OFFSET -2.19248 -6.46944 0
      CHANNELS 6 Xposition Yposition Zposition Zrotation Xrotation Yrotation
      JOINT LowerLeg_L
      {
        OFFSET 39.0811 0 -1.23785e-05
        CHANNELS 6 Xposition Yposition Zposition Zrotation Xrotation Yrotation
        JOINT Foot_L
        {
          OFFSET 40.9854 0 -1.26872e-05
          CHANNELS 6 Xposition Yposition Zposition Zrotation Xrotation Yrotation
          JOINT Toes_L
          {
            OFFSET 11.7543 0 0
            CHANNELS 6 Xposition Yposition Zposition Zrotation Xrotation Yrotation
            End Site
            {
              OFFSET 0 0 0
            }
          }
        }
      }
    }
    JOINT UpperLeg_R
    {
      OFFSET -2.19251 6.46944 0
      CHANNELS 6 Xposition Yposition Zposition Zrotation Xrotation Yrotation
      JOINT LowerLeg_R
      {
        OFFSET -39.0811 -0.00228153 -0.0401928
        CHANNELS 6 Xposition Yposition Zposition Zrotation Xrotation Yrotation
        JOINT Foot_R
        {
          OFFSET -40.9854 0 0
          CHANNELS 6 Xposition Yposition Zposition Zrotation Xrotation Yrotation
          JOINT Toes_R
          {
            OFFSET -11.7543 0 0
            CHANNELS 6 Xposition Yposition Zposition Zrotation Xrotation Yrotation
            End Site
            {
              OFFSET 0 0 0
            }
          }
        }
      }
    }
  }
}
MOTION
Frames:	9
Frame Time:	0.0333333
0 0 0 0 0 -0 0.296755 92.331 -7.54899 91.4955 -6.82464 0.536826 15.7357 5.1072e-06 -5.51765e-07 116.123 88.0725 -116.414 8.98455 -0.406207 -4.3199e-07 -4.30139 1.7266 -0.517153 16.3773 -1.3905e-06 -6.99897e-07 -5.94091 1.19267 -1.20461 6.45672 -1.25837e-06 -1.02172e-07 7.94232 -1.29299 -1.20155 12.9942 -0.242716 4.98039 -91.2056 5.24466 -92.0348 5.34809 -7.22636e-06 -6.2814e-07 -67.8368 -10.6874 14.4163 24.3286 1.87007e-05 4.90208e-06 4.48393 13.161 -19.0041 22.2916 -9.88446e-07 4.63217e-06 8.37185 5.22213 2.15883 12.9945 -0.242716 -4.98039 88.7948 6.93273 -95.1128 -5.34813 -1.25947e-06 -3.79883e-06 -67.7026 -8.05778 17.7701 -24.3289 0.000322201 -8.65921e-06 2.42075 11.3374 -12.1413 -22.2915 -0.000108084 -4.47941e-06 12.9733 5.42421 -3.74102 -2.19248 -6.46944 -1.22534e-07 174.088 -3.23816 -13.3496 39.0811 -6.73843e-06 -1.23785e-05 0.0923923 -0.227424 18.9763 40.9854 -6.48686e-06 -1.26872e-05 5.2278 -0.357508 -55.9206 11.7543 -2.30145e-07 3.05095e-06 0.0963534 -0.10884 -17.6368 -2.19251 6.46944 -1.45247e-06 -176.578 19.1108 174.13 -39.0811 -0.00228153 -0.0401928 0.0308091 -0.0419669 19.8078 -40.9854 7.72618e-06 5.99936e-06 1.04443 -17.029 -66.0124 -11.7543 -5.6619e-06 -5.58687e-06 -0.0250641 0.0129922 -16.5741 
0 0 0 0 0 -0 0.348145 92.3218 -7.54905 91.4845 -6.62814 0.648633 15.7357 5.1072e-06 -5.51765e-07 113.157 87.8964 -113.496 8.98455 -0.406207 -4.3199e-07 -3.89362 1.68789 -0.621782 16.3773 -1.3905e-06 -6.99897e-07 -6.17936 1.05316 -0.949265 6.45672 -1.25837e-06 -1.02172e-07 7.25746 -1.38262 -1.03904 12.9942 -0.242716 4.98039 -91.0792 4.75667 -92.2026 5.34809 -7.22636e-06 -6.2814e-07 -68.7735 -10.2755 14.3812 24.3286 1.87007e-05 4.90208e-06 4.38525 12.9091 -18.9454 22.2916 -9.88446e-07 4.63217e-06 6.90393 5.21709 2.28388 12.9945 -0.242716 -4.98039 88.8872 6.46175 -95.2085 -5.34813 -1.25947e-06 -3.79883e-06 -68.6726 -7.61198 17.2469 -24.3289 0.000322201 -8.65921e-06 2.25772 11.2606 -11.4199 -22.2915 -0.000108084 -4.47941e-06 11.7557 5.4174 -3.51039 -2.19248 -6.46944 -1.22534e-07 174.04 -3.5615 -13.2566 39.0811 -6.73843e-06 -1.23785e-05 0.0941745 -0.231735 19.0301 40.9854 -6.48686e-06 -1.26872e-05 5.33831 0.0980409 -55.9844 11.7543 -2.30145e-07 3.05095e-06 0.110473 -0.125116 -17.7938 -2.19251 6.46944 -1.45247e-06 -176.644 19.3285 174.206 -39.0811 -0.00228153 -0.0401928 0.0302548 -0.0381147 19.9048 -40.9854 7.72618e-06 5.99936e-06 0.994839 -17.0081 -66.0678 -11.7543 -5.6619e-06 -5.58687e-06 -0.0206292 0.0106744 -16.5739 
0 0 0 0 0 -0 0.419556 92.3176 -7.57198 91.4865 -6.3147 0.622069 15.7357 5.1072e-06 -5.51765e-07 109.145 87.8524 -109.494 8.98455 -0.406207 -4.3199e-07 -3.70442 1.44275 -0.651874 16.3773 -1.3905e-06 -6.99897e-07 -6.39828 1.03855 -0.794381 6.45672 -1.25837e-06 -1.02172e-07 6.74493 -1.28878 -1.00147 12.9942 -0.242716 4.98039 -91.128 4.99354 -92.2548 5.34809 -7.22636e-06 -6.2814e-07 -68.7306 -10.0168 14.9183 24.3286 1.87007e-05 4.90208e-06 4.36357 13.0334 -18.6935 22.2916 -9.88446e-07 4.63217e-06 5.72127 5.22766 2.01599 12.9945 -0.242716 -4.98039 88.8952 6.46664 -95.2838 -5.34813 -1.25947e-06 -3.79883e-06 -68.7873 -7.38536 17.221 -24.3289 0.000322201 -8.65921e-06 2.30362 11.6651 -11.2573 -22.2915 -0.000108084 -4.47941e-06 10.7103 5.40106 -2.97105 -2.19248 -6.46944 -1.22534e-07 173.946 -3.84931 -13.2772 39.0811 -6.73843e-06 -1.23785e-05 0.0950176 -0.23503 18.9786 40.9854 -6.48686e-06 -1.26872e-05 5.48562 0.683472 -55.9688 11.7543 -2.30145e-07 3.05095e-06 0.107528 -0.12172 -17.7611 -2.19251 6.46944 -1.45247e-06 -176.718 20.0167 174.125 -39.0811 -0.00228153 -0.0401928 0.0316949 -0.0373628 20.0055 -40.9854 7.72618e-06 5.99936e-06 0.996529 -16.6172 -66.1148 -11.7543 -5.6619e-06 -5.58687e-06 -0.00990777 0.00510055 -16.5739 
0 0 0 0 0 -0 0.51091 92.3182 -7.61813 91.412 -6.09971 0.463267 15.7357 5.1072e-06 -5.51765e-07 107.828 87.8159 -108.166 8.98455 -0.406207 -4.3199e-07 -3.60403 1.37008 -0.63375 16.3773 -1.3905e-06 -6.99897e-07 -6.59675 0.945044 -0.704908 6.45672 -1.25837e-06 -1.02172e-07 6.21039 -1.22546 -0.982064 12.9942 -0.242716 4.98039 -91.1965 5.31553 -92.2946 5.34809 -7.22636e-06 -6.2814e-07 -68.4002 -10.3592 15.3406 24.3286 1.87007e-05 4.90208e-06 4.24106 13.1928 -17.9996 22.2916 -9.88446e-07 4.63217e-06 5.86411 5.21751 2.27525 12.9945 -0.242716 -4.98039 88.8415 6.74655 -95.2321 -5.34813 -1.25947e-06 -3.79883e-06 -68.5076 -7.37297 17.4743 -24.3289 0.000322201 -8.65921e-06 2.30005 11.6003 -11.3006 -22.2915 -0.000108084 -4.47941e-06 10.4709 5.40021 -2.94332 -2.19248 -6.46944 -1.22534e-07 173.923 -3.85358 -13.4443 39.0811 -6.73843e-06 -1.23785e-05 0.0952772 -0.236689 18.9283 40.9854 -6.48686e-06 -1.26872e-05 5.58971 0.875163 -55.9068 11.7543 -2.30145e-07 3.05095e-06 0.115956 -0.131476 -17.855 -2.19251 6.46944 -1.45247e-06 -176.62 19.8477 173.904 -39.0811 -0.00228153 -0.0401928 0.0271258 -0.0299731 20.0313 -40.9854 7.72618e-06 5.99936e-06 0.89383 -16.9668 -66.0727 -11.7543 -5.6619e-06 -5.58687e-06 -0.01705 0.00871483 -16.5739 
0 0 0 0 0 -0 0.601499 92.3084 -7.59809 91.3696 -6.11153 0.44014 15.7357 5.1072e-06 -5.51765e-07 107.672 87.7257 -107.996 8.98455 -0.406207 -4.3199e-07 -3.42858 1.41172 -0.605898 16.3773 -1.3905e-06 -6.99897e-07 -6.75282 0.967422 -0.715334 6.45672 -1.25837e-06 -1.02172e-07 5.73816 -1.25702 -0.957732 12.9942 -0.242716 4.98039 -91.1899 5.28422 -92.291 5.34809 -7.22636e-06 -6.2814e-07 -68.3253 -11.0746 15.631 24.3286 1.87007e-05 4.90208e-06 4.02722 13.2725 -17.0487 22.2916 -9.88446e-07 4.63217e-06 6.69101 5.19458 2.8536 12.9945 -0.242716 -4.98039 88.8481 6.71345 -95.2416 -5.34813 -1.25947e-06 -3.79883e-06 -68.4866 -7.5513 17.6337 -24.3289 0.000322201 -8.65921e-06 2.1909 11.2418 -11.1076 -22.2915 -0.000108084 -4.47941e-06 11.3725 5.41982 -3.59101 -2.19248 -6.46944 -1.22534e-07 173.905 -3.64274 -13.4928 39.0811 -6.73843e-06 -1.23785e-05 0.0975657 -0.242129 18.9947 40.9854 -6.48686e-06 -1.26872e-05 5.62485 0.632034 -55.9264 11.7543 -2.30145e-07 3.05095e-06 0.112459 -0.127425 -17.816 -2.19251 6.46944 -1.45247e-06 -176.612 19.5334 173.817 -39.0811 -0.00228153 -0.0401928 0.0325478 -0.0350849 20.1543 -40.9854 7.72618e-06 5.99936e-06 0.766557 -17.2518 -66.1123 -11.7543 -5.6619e-06 -5.58687e-06 0.00091852 -0.000954711 -16.5812 
0 0 0 0 0 -0 0.700261 92.3024 -7.56234 91.3306 -6.15188 0.367901 15.7357 5.1072e-06 -5.51765e-07 107.624 87.6605 -107.928 8.98455 -0.406207 -4.3199e-07 -3.30316 1.44536 -0.567574 16.3773 -1.3905e-06 -6.99897e-07 -7.01247 1.01489 -0.739216 6.45672 -1.25837e-06 -1.02172e-07 5.4988 -1.2774 -1.0187 12.9942 -0.242716 4.98039 -91.1371 5.07755 -92.358 5.34809 -7.22636e-06 -6.2814e-07 -68.3547 -11.5638 15.9768 24.3286 1.87007e-05 4.90208e-06 3.66607 12.8811 -16.0347 22.2916 -9.88446e-07 4.63217e-06 7.1057 5.18833 3.01039 12.9945 -0.242716 -4.98039 88.8861 6.53211 -95.2991 -5.34813 -1.25947e-06 -3.79883e-06 -68.5384 -7.75992 17.7743 -24.3289 0.000322201 -8.65921e-06 2.08701 10.9578 -10.8575 -22.2915 -0.000108084 -4.47941e-06 12.0632 5.427 -3.83556 -2.19248 -6.46944 -1.22534e-07 173.871 -3.64124 -13.5654 39.0811 -6.73843e-06 -1.23785e-05 0.0996043 -0.247395 19.03 40.9854 -6.48686e-06 -1.26872e-05 5.68948 0.589241 -55.9622 11.7543 -2.30145e-07 3.05095e-06 0.11251 -0.127493 -17.8166 -2.19251 6.46944 -1.45247e-06 -176.607 19.1521 173.723 -39.0811 -0.00228153 -0.0401928 0.0307942 -0.0297823 20.2374 -40.9854 7.72618e-06 5.99936e-06 0.623551 -17.5659 -66.1499 -11.7543 -5.6619e-06 -5.58687e-06 0.0221167 -0.0229543 -16.7512 
0 0 0 0 0 -0 0.785844 92.3128 -7.52873 91.3316 -6.16045 0.307554 15.7357 5.1072e-06 -5.51765e-07 107.236 87.5982 -107.538 8.98455 -0.406207 -4.3199e-07 -3.1747 1.45153 -0.563319 16.3773 -1.3905e-06 -6.99897e-07 -7.17894 1.01497 -0.724907 6.45672 -1.25837e-06 -1.02172e-07 5.12652 -1.28041 -1.1339 12.9942 -0.242716 4.98039 -91.1028 4.96918 -92.4711 5.34809 -7.22636e-06 -6.2814e-07 -68.2656 -11.4094 16.3451 24.3286 1.87007e-05 4.90208e-06 3.47194 12.8428 -15.2675 22.2916 -9.88446e-07 4.63217e-06 6.99807 5.18298 3.14256 12.9945 -0.242716 -4.98039 88.8943 6.52437 -95.3608 -5.34813 -1.25947e-06 -3.79883e-06 -68.3231 -7.93136 17.945 -24.3289 0.000322201 -8.65921e-06 2.04253 10.921 -10.6661 -22.2915 -0.000108084 -4.47941e-06 12.1433 5.42276 -3.69192 -2.19248 -6.46944 -1.22534e-07 173.817 -3.6134 -13.5389 39.0811 -6.73843e-06 -1.23785e-05 0.0989283 -0.247589 18.9096 40.9854 -6.48686e-06 -1.26872e-05 5.73792 0.581373 -55.9299 11.7543 -2.30145e-07 3.05095e-06 0.109107 -0.123539 -17.7785 -2.19251 6.46944 -1.45247e-06 -176.639 18.8161 173.675 -39.0811 -0.00228153 -0.0401928 0.027986 -0.0175987 20.2275 -40.9854 7.72618e-06 5.99936e-06 0.501982 -17.8797 -66.1339 -11.7543 -5.6619e-06 -5.58687e-06 0.0321465 -0.0334071 -16.832 
0 0 0 0 0 -0 0.842879 92.315 -7.4704 91.2882 -6.09929 0.18477 15.7357 5.1072e-06 -5.51765e-07 106.288 87.5818 -106.567 8.98455 -0.406207 -4.3199e-07 -3.12081 1.38238 -0.521421 16.3773 -1.3905e-06 -6.99897e-07 -7.35699 1.04228 -0.806164 6.45672 -1.25837e-06 -1.02172e-07 4.79401 -1.25716 -1.15343 12.9942 -0.242716 4.98039 -91.0842 4.86548 -92.4228 5.34809 -7.22636e-06 -6.2814e-07 -68.134 -10.9587 16.577 24.3286 1.87007e-05 4.90208e-06 3.31311 13.0303 -14.3996 22.2916 -9.88446e-07 4.63217e-06 6.83834 5.19013 2.96559 12.9945 -0.242716 -4.98039 88.905 6.4746 -95.3801 -5.34813 -1.25947e-06 -3.79883e-06 -68.1208 -7.93279 18.0043 -24.3289 0.000322201 -8.65921e-06 1.93725 10.8471 -10.1944 -22.2915 -0.000108084 -4.47941e-06 11.9227 5.42416 -3.73951 -2.19248 -6.46944 -1.22534e-07 173.788 -3.73439 -13.6228 39.0811 -6.73843e-06 -1.23785e-05 0.0989797 -0.247855 18.901 40.9854 -6.48686e-06 -1.26872e-05 5.82121 0.77055 -55.9718 11.7543 -2.30145e-07 3.05095e-06 0.111108 -0.12586 -17.801 -2.19251 6.46944 -1.45247e-06 -176.62 18.9566 173.621 -39.0811 -0.00228153 -0.0401928 0.0203221 -0.0101469 20.1786 -40.9854 7.72618e-06 5.99936e-06 0.463171 -17.7976 -66.1398 -11.7543 -5.6619e-06 -5.58687e-06 0.045364 -0.0472321 -16.9385 
0 0 0 0 0 -0 0.900173 92.3028 -7.38152 91.273 -5.95638 0.204382 15.7357 5.1072e-06 -5.51765e-07 105.595 87.5347 -105.875 8.98455 -0.406207 -4.3199e-07 -3.01392 1.3513 -0.525533 16.3773 -1.3905e-06 -6.99897e-07 -7.4277 1.00953 -0.814832 6.45672 -1.25837e-06 -1.02172e-07 4.44441 -1.28276 -1.19603 12.9942 -0.242716 4.98039 -91.0369 4.68788 -92.5138 5.34809 -7.22636e-06 -6.2814e-07 -67.9425 -11.2525 16.8649 24.3286 1.87007e-05 4.90208e-06 3.03598 12.6204 -13.644 22.2916 -9.88446e-07 4.63217e-06 7.32404 5.18746 3.03132 12.9945 -0.242716 -4.98039 88.9067 6.43867 -95.3422 -5.34813 -1.25947e-06 -3.79883e-06 -67.9435 -7.83467 18.1186 -24.3289 0.000322201 -8.65921e-06 1.82498 10.8326 -9.62765 -22.2915 -0.000108084 -4.47941e-06 11.8495 5.42007 -3.60098 -2.19248 -6.46944 -1.22534e-07 173.748 -3.85843 -13.5994 39.0811 -6.73843e-06 -1.23785e-05 0.101709 -0.253479 19.0243 40.9854 -6.48686e-06 -1.26872e-05 5.90125 0.995959 -56.1121 11.7543 -2.30145e-07 3.05095e-06 0.109525 -0.124027 -17.7833 -2.19251 6.46944 -1.45247e-06 -176.679 19.1116 173.655 -39.0811 -0.00228153 -0.0401928 0.0235052 -0.00320239 20.2798 -40.9854 7.72618e-06 5.99936e-06 0.361619 -17.7883 -66.2452 -11.7543 -5.6619e-06 -5.58687e-06 0.0488722 -0.0509017 -16.9666 
